<svg width="24" height="12" viewBox="0 0 24 12" fill="none" xmlns="http://www.w3.org/2000/svg">
<path d="M23.725 6.66362C23.7247 6.6639 23.7245 6.66423 23.7242 6.66451L18.8256 11.5395C18.4586 11.9047 17.865 11.9033 17.4997 11.5363C17.1344 11.1693 17.1359 10.5758 17.5028 10.2105L20.7918 6.93751L0.9375 6.93751C0.419719 6.93751 4.62879e-07 6.51779 5.08144e-07 6.00001C5.5341e-07 5.48223 0.419719 5.06251 0.9375 5.06251L20.7917 5.06251L17.5029 1.78951C17.1359 1.42426 17.1345 0.830682 17.4997 0.463698C17.865 0.09662 18.4587 0.0953548 18.8256 0.460511L23.7242 5.33551C23.7245 5.33579 23.7247 5.33612 23.7251 5.3364C24.0922 5.70287 24.0911 6.29837 23.725 6.66362Z" fill="#0A0A0A"/>
</svg>
