<svg width="43" height="34" viewBox="0 0 43 34" fill="none" xmlns="http://www.w3.org/2000/svg">
<g clip-path="url(#clip0_2_988)">
<path d="M4.74379 4.44298C4.66304 2.13177 6.47821 0 8.93142 0H34.072C36.5252 0 38.3404 2.13177 38.2596 4.44298C38.1812 6.6639 38.2824 9.54049 39.0125 11.8856C39.7427 14.2306 40.979 15.7225 43 15.9166V18.0834C40.979 18.2741 39.7438 19.7615 39.0125 22.1144C38.2812 24.4674 38.1823 27.3361 38.2596 29.5627C38.3404 31.8739 36.5252 34.0056 34.072 34.0056H8.93142C6.47821 34.0056 4.66304 31.8739 4.74379 29.5627C4.82113 27.3417 4.7199 24.4652 3.99087 22.1144C3.26185 19.7637 2.02216 18.2775 0 18.0834V15.9166C2.02103 15.7259 3.25844 14.2385 3.99087 11.8856C4.72331 9.5326 4.82113 6.6639 4.74379 4.44298Z" fill="url(#paint0_linear_2_988)"/>
<path d="M22.433 26.0384C26.4057 26.0384 28.802 24.1087 28.802 20.9251C28.802 18.5191 27.096 16.7767 24.5586 16.5013V16.4009C26.4216 16.0996 27.8842 14.3831 27.8842 12.4657C27.8842 9.73359 25.7107 7.95166 22.3977 7.95166H14.9414V26.0384H22.433ZM17.8393 10.2482H21.6948C23.7909 10.2482 24.9817 11.1758 24.9817 12.8551C24.9817 14.6472 23.5976 15.6493 21.0875 15.6493H17.8393V10.2482ZM17.8393 23.7453V17.7901H21.6687C24.4119 17.7901 25.8347 18.7922 25.8347 20.7479C25.8347 22.7037 24.4517 23.7453 21.8416 23.7453H17.8393Z" fill="url(#paint1_linear_2_988)" stroke="white"/>
</g>
<defs>
<linearGradient id="paint0_linear_2_988" x1="4.3298" y1="3.47471" x2="41.6785" y2="33.3529" gradientUnits="userSpaceOnUse">
<stop stop-color="#9013FE"/>
<stop offset="1" stop-color="#6610F2"/>
</linearGradient>
<linearGradient id="paint1_linear_2_988" x1="15.8854" y1="9.36005" x2="24.1881" y2="23.5107" gradientUnits="userSpaceOnUse">
<stop stop-color="white"/>
<stop offset="1" stop-color="#F1E5FC"/>
</linearGradient>
<clipPath id="clip0_2_988">
<rect width="43" height="34" fill="white"/>
</clipPath>
</defs>
</svg>
