<svg width="30" height="34" viewBox="0 0 30 34" fill="none" xmlns="http://www.w3.org/2000/svg">
<g clip-path="url(#clip0_2_1001)">
<path d="M2.65816 30.6805L0 0.831299H29.2527L26.5816 30.6805L14.6134 33.9999L2.65816 30.6805Z" fill="#E44D26"/>
<path d="M14.626 31.4585L24.2991 28.7744L26.5812 3.26904H14.626V31.4585Z" fill="#F16529"/>
<path d="M14.6267 14.3424H9.77714L9.44001 10.5951H14.6267V6.92554H14.6137H5.44629L5.53706 7.911L6.43175 17.999H14.6267V14.3424Z" fill="#EBEBEB"/>
<path d="M14.6259 23.847L14.613 23.86L10.5285 22.7578L10.2692 19.8403H8.28527H6.59961L7.10531 25.5845L14.613 27.6722L14.6259 27.6592V23.847Z" fill="#EBEBEB"/>
<path d="M14.6133 14.3425V17.9991H19.1257L18.6978 22.7579L14.6133 23.86V27.6592L22.121 25.5846L22.1728 24.9622L23.0286 15.328L23.1194 14.3425H22.1339H14.6133Z" fill="white"/>
<path d="M14.6133 6.92554V9.20766V10.5821V10.5951H23.4436H23.4565L23.5343 9.76523L23.7029 7.911L23.7807 6.92554H14.6133Z" fill="white"/>
</g>
<defs>
<clipPath id="clip0_2_1001">
<rect width="29.1429" height="34" fill="white"/>
</clipPath>
</defs>
</svg>
