<svg width="34" height="34" viewBox="0 0 34 34" fill="none" xmlns="http://www.w3.org/2000/svg">
<g clip-path="url(#clip0_2_957)">
<path d="M0 0H34V34H0V0Z" fill="#F7DF1E"/>
<path d="M8.93959 28.4128L11.5414 26.8382C12.0434 27.7281 12.5 28.4812 13.5953 28.4812C14.6452 28.4812 15.3073 28.0705 15.3073 26.4731V15.6093H18.5024V26.5182C18.5024 29.8275 16.5625 31.3339 13.7323 31.3339C11.1763 31.3339 9.69263 30.0101 8.93945 28.4125M20.2378 28.0704L22.8393 26.5642C23.5243 27.6826 24.4144 28.5042 25.989 28.5042C27.313 28.5042 28.1572 27.8422 28.1572 26.9293C28.1572 25.8338 27.2899 25.4458 25.8292 24.8069L25.0306 24.4643C22.7254 23.4832 21.1963 22.2507 21.1963 19.6489C21.1963 17.2524 23.0221 15.4265 25.875 15.4265C27.9063 15.4265 29.3669 16.1341 30.4167 17.9828L27.9289 19.5805C27.381 18.5991 26.7879 18.2112 25.8749 18.2112C24.9391 18.2112 24.3457 18.8046 24.3457 19.5805C24.3457 20.539 24.9391 20.9272 26.3084 21.5206L27.1071 21.8629C29.8232 23.027 31.3522 24.2137 31.3522 26.8837C31.3522 29.7596 29.0928 31.3343 26.0574 31.3343C23.0905 31.3343 21.1733 29.9193 20.2377 28.0705" fill="black"/>
</g>
<defs>
<clipPath id="clip0_2_957">
<rect width="34" height="34" fill="white"/>
</clipPath>
</defs>
</svg>
