<svg width="34" height="34" viewBox="0 0 34 34" fill="none" xmlns="http://www.w3.org/2000/svg">
<path d="M17 31.875C25.2152 31.875 31.875 25.2152 31.875 17C31.875 8.78476 25.2152 2.125 17 2.125C8.78476 2.125 2.125 8.78476 2.125 17C2.125 25.2152 8.78476 31.875 17 31.875Z" fill="#8892BF"/>
<path d="M15.3412 10.625H17.1262L16.6217 13.307H18.2257C19.1053 13.3258 19.7605 13.5223 20.1918 13.8968C20.6316 14.2711 20.761 14.9827 20.5799 16.0311L19.7133 20.707H17.9023L18.7301 16.2417C18.8163 15.7736 18.7905 15.4413 18.6526 15.2447C18.5147 15.0482 18.2172 14.9499 17.7601 14.9499L16.3242 14.9359L15.2635 20.707H13.4785L15.3412 10.625Z" fill="white"/>
<path fill-rule="evenodd" clip-rule="evenodd" d="M7.16223 13.3071H10.6288C11.6463 13.3164 12.3836 13.6348 12.8407 14.2619C13.2978 14.8891 13.4487 15.7456 13.2935 16.8315C13.2332 17.3278 13.0995 17.8145 12.8925 18.292C12.6941 18.7693 12.4183 19.1999 12.0647 19.5837C11.6334 20.0705 11.1721 20.3793 10.6806 20.5106C10.189 20.6417 9.68018 20.7071 9.15423 20.7071H7.60202L7.11048 23.3751H5.3125L7.16223 13.3071ZM7.89953 19.1204L8.67305 14.9219H8.93434C9.02928 14.9219 9.12836 14.9171 9.23185 14.9079C9.9218 14.8985 10.4951 14.9688 10.9522 15.1185C11.4178 15.2682 11.5731 15.8346 11.4178 16.8175C11.2283 17.9878 10.8573 18.6711 10.3055 18.8676C9.75364 19.0549 9.06369 19.1438 8.23584 19.1344H8.05475C8.003 19.1344 7.95127 19.1296 7.89953 19.1204Z" fill="white"/>
<path fill-rule="evenodd" clip-rule="evenodd" d="M25.9638 13.3071H22.4972L20.6475 23.3751H22.4454L22.937 20.7071H24.4892C25.0152 20.7071 25.524 20.6417 26.0155 20.5106C26.5071 20.3793 26.9684 20.0705 27.3996 19.5837C27.7532 19.1999 28.0291 18.7693 28.2274 18.292C28.4344 17.8145 28.5682 17.3278 28.6284 16.8315C28.7837 15.7456 28.6329 14.8891 28.1757 14.2619C27.7186 13.6348 26.9813 13.3164 25.9638 13.3071ZM24.008 14.9219L23.2345 19.1204C23.2863 19.1296 23.338 19.1344 23.3898 19.1344H23.5708C24.3987 19.1438 25.0886 19.0549 25.6405 18.8676C26.1922 18.6711 26.5632 17.9878 26.7529 16.8175C26.9081 15.8346 26.7529 15.2682 26.2872 15.1185C25.8301 14.9688 25.2568 14.8985 24.5668 14.9079C24.4633 14.9171 24.3643 14.9219 24.2693 14.9219H24.008Z" fill="white"/>
</svg>
