<svg width="54" height="54" viewBox="0 0 54 54" fill="none" xmlns="http://www.w3.org/2000/svg">
<g id="Quote (1) 1">
<g id="Quote">
<path id="quote-copy" d="M30.8571 54.0002V39.7562C30.8571 31.6008 32.8286 24.8698 36.7714 19.5633C40.7143 14.2567 46.4571 10.8214 54 9.25732V18.474C50.3429 19.3678 47.4857 21.0156 45.4286 23.4175C43.3714 25.8194 42.1143 28.752 41.6571 32.2153H50.5714V54.0002H30.8571ZM0 54.0002V39.7562C0 31.6008 1.97143 24.8698 5.91429 19.5633C9.85714 14.2567 15.6 10.8214 23.1429 9.25732V18.474C19.4857 19.3678 16.6286 21.0156 14.5714 23.4175C12.5143 25.8194 11.2571 28.752 10.8 32.2153H19.7143V54.0002H0Z" fill="#FF6A16"/>
</g>
</g>
</svg>
