<svg width="34" height="34" viewBox="0 0 34 34" fill="none" xmlns="http://www.w3.org/2000/svg">
<g clip-path="url(#clip0_2_948)">
<path d="M33.9863 16.9142C33.9863 14.4869 31.1686 12.1865 26.8486 10.76C27.8455 6.00982 27.4024 2.23063 25.4501 1.02069C25.0001 0.736877 24.4739 0.602439 23.8993 0.602439V2.26797C24.2178 2.26797 24.4739 2.33519 24.6885 2.46216C25.6301 3.04472 26.0386 5.26295 25.7201 8.11601C25.6439 8.81808 25.5193 9.55749 25.367 10.3118C24.0101 9.95333 22.5285 9.67699 20.9708 9.49774C20.0362 8.11601 19.067 6.86126 18.0908 5.76335C20.3478 3.50032 22.4662 2.2605 23.9062 2.2605V0.594971C22.0024 0.594971 19.5101 2.05885 16.99 4.59823C14.47 2.07379 11.9777 0.624846 10.0738 0.624846V2.29038C11.5069 2.29038 13.6323 3.52273 15.8893 5.77082C14.92 6.86873 13.9508 8.11601 13.03 9.49774C11.4654 9.67699 9.98385 9.95333 8.62692 10.3193C8.46769 9.57242 8.34999 8.84795 8.26692 8.15336C7.94153 5.30029 8.34307 3.08207 9.27769 2.49204C9.48538 2.3576 9.75539 2.29785 10.0738 2.29785V0.632315C9.49231 0.632315 8.96615 0.766752 8.50922 1.05057C6.56383 2.2605 6.12767 6.03223 7.13152 10.7674C2.82535 12.2014 0.0214844 14.4943 0.0214844 16.9142C0.0214844 19.3416 2.83919 21.6419 7.15922 23.0685C6.16229 27.8186 6.60537 31.5978 8.55769 32.8077C9.00769 33.0916 9.53385 33.226 10.1154 33.226C12.0192 33.226 14.5116 31.7621 17.0316 29.2227C19.5516 31.7472 22.0439 33.1961 23.9478 33.1961C24.5293 33.1961 25.0555 33.0617 25.5124 32.7779C27.4578 31.5679 27.8939 27.7962 26.8901 23.061C31.1824 21.6345 33.9863 19.3341 33.9863 16.9142ZM24.9724 11.9326C24.7162 12.896 24.3978 13.8894 24.0378 14.8827C23.7539 14.2852 23.4562 13.6877 23.1308 13.0902C22.8124 12.4927 22.4732 11.9101 22.1339 11.3425C23.117 11.4994 24.0655 11.6936 24.9724 11.9326ZM21.8016 19.8868C21.2616 20.8951 20.7078 21.8511 20.1331 22.7399C19.1016 22.8369 18.0562 22.8892 17.0039 22.8892C15.9585 22.8892 14.9131 22.8369 13.8885 22.7473C13.3139 21.8585 12.7531 20.91 12.2131 19.9092C11.6869 18.9308 11.2092 17.9374 10.7731 16.9366C11.2023 15.9358 11.6869 14.935 12.2062 13.9566C12.7462 12.9483 13.3 11.9923 13.8746 11.1035C14.9062 11.0064 15.9516 10.9541 17.0039 10.9541C18.0493 10.9541 19.0947 11.0064 20.1193 11.0961C20.6939 11.9848 21.2547 12.9334 21.7947 13.9342C22.3208 14.9126 22.7985 15.9059 23.2347 16.9067C22.7985 17.9076 22.3208 18.9084 21.8016 19.8868ZM24.0378 18.9158C24.4116 19.9167 24.7301 20.9175 24.9932 21.8884C24.0862 22.1274 23.1308 22.3291 22.1408 22.4859C22.4801 21.9108 22.8193 21.3208 23.1378 20.7158C23.4562 20.1183 23.7539 19.5133 24.0378 18.9158ZM17.0177 26.885C16.3739 26.168 15.73 25.3689 15.0931 24.495C15.7162 24.5249 16.3531 24.5473 16.997 24.5473C17.6477 24.5473 18.2916 24.5324 18.9216 24.495C18.2985 25.3689 17.6547 26.168 17.0177 26.885ZM11.8669 22.4859C10.8839 22.3291 9.93539 22.1349 9.02846 21.8959C9.28461 20.9324 9.60308 19.9391 9.96308 18.9457C10.2469 19.5432 10.5446 20.1407 10.87 20.7382C11.1954 21.3357 11.5277 21.9183 11.8669 22.4859ZM16.9831 6.94342C17.627 7.66042 18.2708 8.45958 18.9077 9.33342C18.2847 9.30355 17.6477 9.28114 17.0039 9.28114C16.3531 9.28114 15.7093 9.29608 15.0793 9.33342C15.7023 8.45958 16.3462 7.66042 16.9831 6.94342ZM11.86 11.3425C11.5208 11.9176 11.1815 12.5076 10.8631 13.1126C10.5446 13.7101 10.2469 14.3076 9.96308 14.9051C9.58923 13.9043 9.27077 12.9035 9.00769 11.9326C9.91462 11.701 10.87 11.4994 11.86 11.3425ZM5.59459 20.6934C3.14381 19.5656 1.55842 18.0868 1.55842 16.9142C1.55842 15.7416 3.14381 14.2553 5.59459 13.135C6.18998 12.8587 6.84075 12.6122 7.5123 12.3807C7.90691 13.8446 8.42615 15.3682 9.07 16.9292C8.43307 18.4827 7.92076 19.9988 7.53307 21.4552C6.84768 21.2237 6.1969 20.9698 5.59459 20.6934ZM9.31923 31.3663C8.37769 30.7837 7.96922 28.5655 8.28769 25.7124C8.36384 25.0104 8.48846 24.2709 8.64077 23.5166C9.9977 23.8751 11.4792 24.1514 13.0369 24.3307C13.9716 25.7124 14.9408 26.9672 15.917 28.0651C13.66 30.3281 11.5415 31.5679 10.1015 31.5679C9.79 31.5605 9.52692 31.4932 9.31923 31.3663ZM25.7409 25.6751C26.0662 28.5281 25.6647 30.7464 24.7301 31.3364C24.5224 31.4708 24.2524 31.5306 23.9339 31.5306C22.5008 31.5306 20.3754 30.2982 18.1185 28.0501C19.0877 26.9522 20.057 25.705 20.9778 24.3232C22.5424 24.144 24.0239 23.8676 25.3809 23.5017C25.5401 24.256 25.6647 24.9805 25.7409 25.6751ZM28.4063 20.6934C27.8109 20.9698 27.1601 21.2162 26.4886 21.4478C26.0939 19.9839 25.5747 18.4602 24.9309 16.8993C25.5678 15.3458 26.0801 13.8296 26.4678 12.3732C27.1532 12.6047 27.8039 12.8587 28.4132 13.135C30.864 14.2628 32.4494 15.7416 32.4494 16.9142C32.4424 18.0868 30.857 19.5731 28.4063 20.6934Z" fill="#61DAFB"/>
<path d="M16.9969 20.3274C18.7442 20.3274 20.1607 18.7993 20.1607 16.9142C20.1607 15.0291 18.7442 13.501 16.9969 13.501C15.2495 13.501 13.833 15.0291 13.833 16.9142C13.833 18.7993 15.2495 20.3274 16.9969 20.3274Z" fill="#61DAFB"/>
</g>
<defs>
<clipPath id="clip0_2_948">
<rect width="34" height="34" fill="white"/>
</clipPath>
</defs>
</svg>
