<svg width="73" height="78" viewBox="0 0 73 78" fill="none" xmlns="http://www.w3.org/2000/svg">
<g clip-path="url(#clip0_69_72)">
<mask id="mask0_69_72" style="mask-type:luminance" maskUnits="userSpaceOnUse" x="0" y="0" width="73" height="78">
<path d="M72.199 0.639404H0V77.3607H72.199V0.639404Z" fill="white"/>
</mask>
<g mask="url(#mask0_69_72)">
<path d="M36.0787 77.3606C35.9242 77.3584 35.7724 77.3204 35.6352 77.2496L0.519875 58.5653C0.362396 58.4783 0.231092 58.3508 0.139653 58.1959C0.0482141 58.041 -1.06582e-05 57.8643 8.87225e-06 57.6844V20.3155C-0.000749828 20.1354 0.0471642 19.9585 0.13868 19.8035C0.230197 19.6484 0.361908 19.521 0.519875 19.4347L35.6559 0.750259C35.7929 0.674979 35.9467 0.635498 36.103 0.635498C36.2593 0.635498 36.4131 0.674979 36.55 0.750259L71.6791 19.4347C71.8371 19.521 71.9689 19.6484 72.0604 19.8035C72.1519 19.9585 72.1998 20.1354 72.199 20.3155V57.6844C72.199 57.8643 72.1508 58.041 72.0593 58.1959C71.968 58.3508 71.8367 58.4783 71.6791 58.5653L36.55 77.2496C36.404 77.3235 36.2424 77.3615 36.0787 77.3606ZM1.94084 57.081L36.0787 75.2522L70.2444 57.081V20.912L36.0787 2.7477L1.94084 20.912V57.081Z" fill="#0A0A0A"/>
<path d="M0.971095 58.676C0.792599 58.6748 0.617921 58.6241 0.466279 58.5299C0.314636 58.4358 0.191905 58.3015 0.111584 58.1419C-0.00736742 57.9095 -0.0312005 57.6397 0.0451305 57.3898C0.121461 57.1399 0.291962 56.9297 0.520543 56.8034L54.5866 28.0485C54.7002 27.9889 54.8244 27.9525 54.9522 27.9415C55.0799 27.9306 55.2085 27.9452 55.3305 27.9846C55.4525 28.024 55.5655 28.0874 55.6627 28.171C55.7599 28.2546 55.8395 28.3568 55.8967 28.4716C56.0133 28.7054 56.0351 28.975 55.9577 29.2245C55.8801 29.474 55.7093 29.6838 55.4808 29.8102L1.42165 58.565C1.28226 58.6369 1.12791 58.675 0.971095 58.676Z" fill="#0A0A0A"/>
<path d="M71.2282 58.6761C71.0735 58.6756 70.9213 58.6375 70.7845 58.5652L36.2447 40.2345C36.0135 40.1106 35.8404 39.9009 35.7625 39.6504C35.6847 39.4 35.7085 39.129 35.8287 38.8959C35.886 38.7812 35.9656 38.6789 36.0627 38.5952C36.16 38.5116 36.2729 38.4483 36.395 38.4089C36.5169 38.3696 36.6456 38.3548 36.7733 38.3658C36.9011 38.3768 37.0253 38.4132 37.1388 38.4729L71.6787 56.8035C71.9085 56.9286 72.0805 57.1384 72.1582 57.3884C72.2358 57.6384 72.213 57.9087 72.0947 58.142C72.0138 58.3026 71.89 58.4375 71.737 58.5319C71.584 58.6262 71.4079 58.6761 71.2282 58.6761Z" fill="#0A0A0A"/>
<path d="M60.5824 63.8014C60.4253 63.8017 60.2707 63.7636 60.1318 63.6904L25.5918 45.3598C25.362 45.2346 25.1902 45.0248 25.1125 44.7749C25.0348 44.5249 25.0576 44.2545 25.176 44.0211C25.2332 43.9064 25.3128 43.8041 25.41 43.7205C25.5072 43.6369 25.6202 43.5736 25.7421 43.5342C25.8641 43.4947 25.9928 43.4801 26.1205 43.4911C26.2483 43.5021 26.3725 43.5384 26.486 43.5981L61.0329 61.9288C61.2626 62.0538 61.4346 62.2637 61.5123 62.5136C61.59 62.7636 61.5672 63.0339 61.4488 63.2673C61.3679 63.4279 61.2441 63.5628 61.0911 63.6572C60.9382 63.7514 60.7621 63.8014 60.5824 63.8014Z" fill="#0A0A0A"/>
</g>
</g>
<defs>
<clipPath id="clip0_69_72">
<rect width="72.843" height="78" fill="white"/>
</clipPath>
</defs>
</svg>
