<svg width="97" height="78" viewBox="0 0 97 78" fill="none" xmlns="http://www.w3.org/2000/svg">
<mask id="mask0_69_81" style="mask-type:luminance" maskUnits="userSpaceOnUse" x="0" y="0" width="96" height="78">
<path d="M95.2569 0.639404H0V77.3607H95.2569V0.639404Z" fill="white"/>
</mask>
<g mask="url(#mask0_69_81)">
<path d="M37.5915 77.3684C37.4456 77.3707 37.3007 77.3427 37.1661 77.2862C37.0315 77.2298 36.9101 77.146 36.8096 77.0404L0.305208 39.7925C0.104405 39.582 -0.00756835 39.3024 -0.00756836 39.0116C-0.00756836 38.7208 0.104405 38.4413 0.305208 38.2307L36.8096 0.982824C36.9097 0.875964 37.0308 0.790792 37.1653 0.732556C37.2999 0.67432 37.445 0.644287 37.5915 0.644287C37.7381 0.644287 37.8832 0.67432 38.0178 0.732556C38.1522 0.790792 38.2733 0.875964 38.3735 0.982824L74.8778 38.2307C75.0804 38.4404 75.1936 38.7203 75.1936 39.0116C75.1936 39.3029 75.0804 39.5829 74.8778 39.7925L38.3735 77.0404C38.2721 77.145 38.1505 77.228 38.0162 77.2844C37.8818 77.3407 37.7373 77.3693 37.5915 77.3684ZM2.63559 39.0038L37.5915 74.6743L72.5475 39.0038L37.5915 3.33327L2.63559 39.0038Z" fill="#0A0A0A"/>
<path d="M65.8759 68.9817C65.7302 68.9821 65.5859 68.9533 65.4516 68.8969C65.3172 68.8407 65.1956 68.7579 65.0939 68.6537L55.6393 58.9317C55.4403 58.7204 55.3295 58.4411 55.3295 58.1508C55.3295 57.8607 55.4403 57.5814 55.6393 57.3699C55.7407 57.2651 55.8622 57.1817 55.9965 57.1248C56.1309 57.0678 56.2754 57.0385 56.4213 57.0385C56.5673 57.0385 56.7117 57.0678 56.8462 57.1248C56.9805 57.1817 57.102 57.2651 57.2033 57.3699L65.9228 66.2721L92.6598 38.9882L65.9228 11.7042L38.4116 39.8159C38.3113 39.9228 38.1903 40.0079 38.0557 40.0661C37.9213 40.1244 37.7762 40.1545 37.6295 40.1545C37.4829 40.1545 37.338 40.1244 37.2034 40.0661C37.0689 40.0079 36.9478 39.9228 36.8475 39.8159C36.6449 39.6063 36.5317 39.3264 36.5317 39.035C36.5317 38.7437 36.6449 38.4638 36.8475 38.2541L65.1251 9.36162C65.2259 9.25577 65.3472 9.17146 65.4816 9.11387C65.6161 9.05629 65.7608 9.02661 65.9072 9.02661C66.0534 9.02661 66.1981 9.05629 66.3326 9.11387C66.467 9.17146 66.5883 9.25577 66.6892 9.36162L94.9745 38.2541C95.1735 38.4656 95.2844 38.7448 95.2844 39.035C95.2844 39.3252 95.1735 39.6045 94.9745 39.8159L66.6892 68.7083C66.5797 68.8074 66.451 68.8829 66.3111 68.9298C66.1711 68.9769 66.0229 68.9945 65.8759 68.9817Z" fill="#0A0A0A"/>
</g>
</svg>
