<svg width="96" height="78" viewBox="0 0 96 78" fill="none" xmlns="http://www.w3.org/2000/svg">
<mask id="mask0_69_30" style="mask-type:luminance" maskUnits="userSpaceOnUse" x="0" y="0" width="95" height="78">
<path d="M94.9665 0.639404H0V77.3607H94.9665V0.639404Z" fill="white"/>
</mask>
<g mask="url(#mask0_69_30)">
<path d="M47.6737 77.4124C47.5111 77.4091 47.3509 77.373 47.2026 77.3063C47.0543 77.2397 46.921 77.1438 46.8107 77.0245L0.328537 26.6413C0.1511 26.4466 0.0397215 26.2009 0.0102772 25.9393C-0.0191671 25.6777 0.0348251 25.4134 0.164561 25.1843L12.1864 3.80336C12.2901 3.61696 12.4413 3.46133 12.6247 3.3523C12.8081 3.24327 13.0173 3.18473 13.2307 3.18262H19.548C19.8753 3.18262 20.1891 3.31251 20.4205 3.54372C20.6521 3.77492 20.782 4.0885 20.782 4.41548C20.782 4.74244 20.6521 5.05602 20.4205 5.28722C20.1891 5.51844 19.8753 5.64832 19.548 5.64832H13.9297L2.71047 25.6153L47.6737 74.3345L92.2399 25.6843L79.7436 5.68281H47.4838C47.1566 5.68281 46.8427 5.55292 46.6113 5.32171C46.3797 5.09051 46.2498 4.77692 46.2498 4.44996C46.2498 4.12299 46.3797 3.8094 46.6113 3.57821C46.8427 3.34699 47.1566 3.2171 47.4838 3.2171H80.408C80.6109 3.21818 80.8102 3.271 80.9868 3.37058C81.1636 3.47017 81.3119 3.6132 81.4178 3.78611L94.7773 25.167C94.9232 25.3968 94.9895 25.6679 94.9662 25.9389C94.9428 26.21 94.8309 26.4658 94.6478 26.6671L48.5541 77.0072C48.3297 77.2476 48.0196 77.39 47.6909 77.4037L47.6737 77.4124Z" fill="#0A0A0A"/>
<path d="M67.9023 55.2728C67.7408 55.2727 67.581 55.2398 67.4327 55.176C67.2842 55.1123 67.1504 55.0191 67.0392 54.9021L19.0728 5.28629C18.8511 5.05384 18.7275 4.74515 18.7275 4.42415C18.7275 4.10316 18.8511 3.79446 19.0728 3.56202C19.1833 3.44403 19.317 3.34999 19.4653 3.28569C19.6138 3.2214 19.7739 3.18823 19.9357 3.18823C20.0975 3.18823 20.2577 3.2214 20.406 3.28569C20.5545 3.34999 20.6881 3.44403 20.7987 3.56202L68.7739 53.1778C68.9956 53.4103 69.1191 53.7189 69.1191 54.04C69.1191 54.361 68.9956 54.6697 68.7739 54.9021C68.6628 55.0214 68.5277 55.1162 68.3774 55.18C68.2273 55.2438 68.0654 55.2755 67.9023 55.2728Z" fill="#0A0A0A"/>
</g>
</svg>
