<svg width="99" height="78" viewBox="0 0 99 78" fill="none" xmlns="http://www.w3.org/2000/svg">
<mask id="mask0_69_88" style="mask-type:luminance" maskUnits="userSpaceOnUse" x="0" y="0" width="98" height="78">
<path d="M97.2964 0.639404H0V77.3607H97.2964V0.639404Z" fill="white"/>
</mask>
<g mask="url(#mask0_69_88)">
<path d="M96.1915 74.145L69.9858 73.7671C69.6954 73.7418 69.4249 73.6082 69.2279 73.3927C69.0308 73.1772 68.9215 72.8955 68.9215 72.603C68.9215 72.3106 69.0308 72.0288 69.2279 71.8133C69.4249 71.5977 69.6954 71.4641 69.9858 71.4388L94.3691 71.7991L61.6187 4.33842L40.0654 48.0411L52.7083 71.7639C52.8057 71.9432 52.8567 72.1441 52.8567 72.3482C52.8567 72.5524 52.8057 72.7533 52.7083 72.9325C52.614 73.1016 52.4767 73.2426 52.3106 73.3413C52.1444 73.4402 51.9552 73.4931 51.762 73.4948L27.002 73.1609C26.8118 73.1562 26.6262 73.1018 26.4634 73.0033C26.3004 72.9047 26.166 72.7652 26.0733 72.5985C25.9805 72.4243 25.9319 72.2296 25.9319 72.032C25.9319 71.8343 25.9805 71.6397 26.0733 71.4652L37.5946 48.1114L27.0809 28.316L2.11932 72.2472C2.04775 72.375 1.95116 72.4872 1.83536 72.5767C1.71955 72.6663 1.58694 72.7315 1.44541 72.7684C1.30387 72.8053 1.15631 72.8132 1.01167 72.7915C0.867019 72.7699 0.728234 72.7193 0.603592 72.6425C0.352733 72.4736 0.174603 72.2161 0.104769 71.9214C0.0349336 71.6266 0.0785369 71.3162 0.226854 71.0522L26.1696 25.4341C26.2639 25.2651 26.4011 25.124 26.5673 25.0252C26.7334 24.9265 26.9228 24.8735 27.1158 24.8719C27.3101 24.8776 27.4994 24.9353 27.6641 25.0388C27.829 25.1422 27.9632 25.2877 28.0534 25.4605L38.8299 45.6689L60.7338 1.30717C60.8201 1.12139 60.9574 0.964098 61.1297 0.853641C61.3018 0.743185 61.5018 0.68413 61.7063 0.68335C61.9113 0.685962 62.1115 0.746758 62.2837 0.858709C62.4558 0.970661 62.5927 1.12919 62.6788 1.31596L97.2429 72.4844C97.3292 72.6643 97.3696 72.8627 97.3604 73.0622C97.3513 73.2616 97.2927 73.4555 97.1902 73.6266C97.0882 73.7976 96.9408 73.9366 96.7643 74.0283C96.5879 74.1198 96.3896 74.1602 96.1915 74.145ZM28.8156 70.8414L49.8433 71.1489L38.8387 50.5013L28.8156 70.8414Z" fill="#0A0A0A"/>
</g>
</svg>
