<svg width="34" height="34" viewBox="0 0 34 34" fill="none" xmlns="http://www.w3.org/2000/svg">
<path d="M28.1521 6.67666C28.1288 6.50656 27.9798 6.41254 27.8568 6.40222C27.7339 6.39189 25.1341 6.19924 25.1341 6.19924C25.1341 6.19924 23.3284 4.40666 23.1303 4.2083C22.932 4.00994 22.5448 4.07026 22.3945 4.11455C22.3722 4.12107 22 4.23601 21.384 4.42649C20.7807 2.69097 19.7164 1.09594 17.8436 1.09594C17.792 1.09594 17.7387 1.09811 17.6855 1.1011C17.1529 0.396785 16.4931 0.0908203 15.9233 0.0908203C11.561 0.0908203 9.47688 5.54411 8.82338 8.31545C7.12835 8.8407 5.92405 9.21405 5.77026 9.26241C4.8241 9.55914 4.79421 9.58903 4.67003 10.4806C4.57629 11.1555 2.10059 30.3014 2.10059 30.3014L21.3918 33.9159L31.8446 31.6546C31.8446 31.6546 28.1752 6.84676 28.1521 6.67666ZM20.3177 4.75637C19.8332 4.90636 19.2824 5.07674 18.6854 5.26151C18.686 5.14657 18.6865 5.03326 18.6865 4.90962C18.6865 3.83087 18.5368 2.96243 18.2966 2.27387C19.2615 2.39506 19.9041 3.49284 20.3177 4.75637ZM17.0996 2.48772C17.3678 3.15997 17.5423 4.1246 17.5423 5.42645C17.5423 5.49302 17.5417 5.55389 17.5412 5.61557C16.4796 5.94436 15.3261 6.30141 14.1699 6.65954C14.819 4.15422 16.0358 2.94422 17.0996 2.48772ZM15.8035 1.26088C15.9918 1.26088 16.1815 1.32473 16.363 1.44973C14.9649 2.10758 13.4664 3.76457 12.8335 7.07338C11.9086 7.35978 11.0045 7.63966 10.1687 7.89862C10.91 5.37482 12.6702 1.26088 15.8035 1.26088Z" fill="#95BF46"/>
<path d="M27.8564 6.40223C27.7336 6.3919 25.1337 6.19925 25.1337 6.19925C25.1337 6.19925 23.3281 4.40667 23.13 4.20831C23.0558 4.1344 22.9558 4.09663 22.8512 4.08032L21.3926 33.9157L31.8443 31.6546C31.8443 31.6546 28.1749 6.84677 28.1518 6.67667C28.1284 6.50657 27.9795 6.41255 27.8564 6.40223Z" fill="#5E8E3E"/>
<path d="M17.8436 12.1777L16.5548 16.0115C16.5548 16.0115 15.4255 15.4089 14.0413 15.4089C12.012 15.4089 11.9099 16.6824 11.9099 17.0033C11.9099 18.7544 16.4743 19.4252 16.4743 23.5267C16.4743 26.7534 14.4277 28.8313 11.668 28.8313C8.35649 28.8313 6.66309 26.7703 6.66309 26.7703L7.54973 23.8408C7.54973 23.8408 9.29041 25.3353 10.7594 25.3353C11.7191 25.3353 12.1096 24.5796 12.1096 24.0275C12.1096 21.7433 8.36491 21.6414 8.36491 17.8884C8.36491 14.7295 10.6322 11.6726 15.2089 11.6726C16.9724 11.6726 17.8436 12.1777 17.8436 12.1777Z" fill="white"/>
</svg>
