<svg width="34" height="34" viewBox="0 0 34 34" fill="none" xmlns="http://www.w3.org/2000/svg">
<g clip-path="url(#clip0_2_994)">
<path d="M30.6793 0H3.32067C1.48671 0 0 1.48671 0 3.32067V30.6793C0 32.5133 1.48671 34 3.32067 34H30.6793C32.5133 34 34 32.5133 34 30.6793V3.32067C34 1.48671 32.5133 0 30.6793 0Z" fill="#3178C6"/>
<path d="M30.6793 0H3.32067C1.48671 0 0 1.48671 0 3.32067V30.6793C0 32.5133 1.48671 34 3.32067 34H30.6793C32.5133 34 34 32.5133 34 30.6793V3.32067C34 1.48671 32.5133 0 30.6793 0Z" fill="#3178C6"/>
<path d="M21.0461 27.0549V30.3733C21.6521 30.672 22.2979 30.8819 22.9637 30.9967C23.733 31.1382 24.5138 31.2081 25.2961 31.2052C26.0575 31.209 26.8172 31.133 27.5627 30.9785C28.2322 30.8454 28.8714 30.5903 29.4486 30.226C29.9818 29.8854 30.4226 29.4182 30.7315 28.866C31.2816 27.7152 31.3541 26.3935 30.9333 25.1895C30.755 24.7389 30.4901 24.3276 30.1535 23.9791C29.7913 23.6085 29.3803 23.289 28.9318 23.0293C28.4157 22.7278 27.8795 22.4619 27.327 22.2337C26.8903 22.0539 26.4989 21.8794 26.1529 21.7101C25.8439 21.5628 25.5481 21.3891 25.2689 21.1911C25.0496 21.0376 24.8593 20.8465 24.7067 20.6267C24.573 20.4255 24.5042 20.1882 24.5095 19.9467C24.5066 19.7275 24.5681 19.5124 24.6863 19.3279C24.8143 19.134 24.9849 18.972 25.185 18.8541C25.43 18.7108 25.6963 18.6075 25.9738 18.5481C26.3153 18.4723 26.6644 18.4358 27.0142 18.4393C27.3076 18.4402 27.6007 18.4606 27.8914 18.5005C28.2052 18.5435 28.5157 18.6079 28.8207 18.6932C29.1306 18.7793 29.4337 18.8884 29.7274 19.0196C30.0129 19.145 30.2861 19.2968 30.5434 19.4729V16.3676C30.0078 16.166 29.4524 16.0217 28.8865 15.9369C28.2035 15.8375 27.5139 15.7905 26.8238 15.7964C26.0684 15.7923 25.3152 15.8776 24.5798 16.0503C23.9155 16.202 23.2837 16.4715 22.7143 16.8459C22.186 17.1962 21.7492 17.668 21.4405 18.2217C21.115 18.8367 20.9542 19.5254 20.9735 20.2209C20.9496 21.1405 21.2532 22.0387 21.8303 22.7551C22.4015 23.4547 23.2697 24.0471 24.4347 24.5321C24.8881 24.7195 25.3142 24.9031 25.7131 25.0829C26.0694 25.2412 26.4121 25.4284 26.7377 25.6428C26.9995 25.8132 27.2297 26.0279 27.4177 26.2775C27.5832 26.5034 27.6708 26.7771 27.667 27.0572C27.6684 27.2669 27.6145 27.4734 27.5106 27.6556C27.3945 27.8516 27.2318 28.0159 27.0369 28.1339C26.7932 28.2823 26.5267 28.3895 26.2481 28.4512C25.8851 28.5322 25.5138 28.5702 25.1419 28.5645C24.4114 28.5632 23.6867 28.4351 22.9999 28.186C22.2825 27.9285 21.617 27.5446 21.0347 27.0527L21.0461 27.0549ZM15.4587 18.8655H19.7201V16.1455H7.83594V18.8655H12.0791V31.0125H15.4565L15.4587 18.8655Z" fill="white"/>
</g>
<defs>
<clipPath id="clip0_2_994">
<rect width="34" height="34" fill="white"/>
</clipPath>
</defs>
</svg>
