<svg width="34" height="34" viewBox="0 0 34 34" fill="none" xmlns="http://www.w3.org/2000/svg">
<g clip-path="url(#clip0_2_976)">
<path d="M17 0C13.6377 0 10.351 0.997032 7.55532 2.86502C4.75968 4.733 2.58075 7.38804 1.29406 10.4944C0.00736595 13.6007 -0.329291 17.0189 0.326658 20.3165C0.982607 23.6142 2.6017 26.6433 4.97919 29.0208C7.35668 31.3983 10.3858 33.0174 13.6835 33.6734C16.9811 34.3293 20.3993 33.9926 23.5056 32.706C26.612 31.4193 29.267 29.2403 31.135 26.4447C33.003 23.6491 34 20.3623 34 17C33.9948 12.4929 32.202 8.17196 29.015 4.98497C25.8281 1.79799 21.5071 0.00523719 17 0ZM1.709 17C1.70747 14.8563 2.15865 12.7365 3.03302 10.7793L10.3241 30.7475C7.74307 29.495 5.56643 27.5416 4.04298 25.1105C2.51953 22.6795 1.71073 19.8689 1.709 17ZM17 32.291C15.5385 32.2911 14.0845 32.0815 12.6825 31.6686L17.268 18.3438L21.9669 31.2116C21.9976 31.2847 22.0343 31.3551 22.0766 31.4221C20.4459 31.9974 18.7292 32.2912 17 32.291ZM19.1066 9.84021C20.0258 9.79164 20.8551 9.6945 20.8551 9.6945C21.6791 9.59736 21.5747 8.38667 20.758 8.43524C20.758 8.43524 18.2827 8.62952 16.6834 8.62952C15.1813 8.62952 12.6574 8.43524 12.6574 8.43524C11.8334 8.38667 11.7363 9.64593 12.5602 9.6945C12.5602 9.6945 13.3392 9.79164 14.1631 9.84021L16.5449 16.365L13.1988 26.3959L7.63292 9.84561C8.55397 9.79704 9.38149 9.6999 9.38149 9.6999C10.2054 9.60275 10.1011 8.39207 9.28434 8.44064C9.28434 8.44064 6.809 8.63492 5.21154 8.63492C4.92551 8.63492 4.58731 8.63492 4.22752 8.61693C5.44256 6.76745 7.04481 5.20396 8.92347 4.03455C10.8021 2.86515 12.9124 2.11774 15.1083 1.84403C17.3042 1.57031 19.5333 1.77681 21.6416 2.44925C23.7498 3.12169 25.6869 4.24401 27.3187 5.73862C27.2522 5.73862 27.1892 5.72603 27.1209 5.72603C25.6187 5.72603 24.5538 7.03386 24.5538 8.43884C24.5538 9.6981 25.2733 10.7649 26.0559 12.0241C26.6369 13.0423 27.3151 14.3502 27.3151 16.239C27.3151 17.5469 26.8114 19.0652 26.153 21.1807L24.6275 26.2735L19.1066 9.84021ZM30.4129 9.67291C32.322 13.1687 32.7916 17.2715 31.7219 21.1083C30.6521 24.9451 28.1275 28.213 24.6851 30.2168L29.3623 16.7248C30.2348 14.5444 30.5245 12.8013 30.5245 11.2506C30.5225 10.7209 30.4846 10.192 30.4111 9.66751L30.4129 9.67291Z" fill="#FF6A16"/>
</g>
<defs>
<clipPath id="clip0_2_976">
<rect width="34" height="34" fill="white"/>
</clipPath>
</defs>
</svg>
