<?xml version="1.0" standalone="no"?>
<!DOCTYPE svg PUBLIC "-//W3C//DTD SVG 1.1//EN" "http://www.w3.org/Graphics/SVG/1.1/DTD/svg11.dtd" >
<svg xmlns="http://www.w3.org/2000/svg">
<metadata>Generated by IcoMoon</metadata>
<defs>
<font id="metech" horiz-adv-x="1024">
<font-face units-per-em="1024" ascent="960" descent="-64" />
<missing-glyph horiz-adv-x="1024" />
<glyph unicode="&#x20;" horiz-adv-x="512" d="" />
<glyph unicode="&#xe900;" glyph-name="arrow-right" horiz-adv-x="2048" d="M2024.533 391.371c-0.026-0.024-0.043-0.052-0.068-0.076l-418.014-415.999c-31.317-31.164-81.971-31.044-113.143 0.273s-31.044 81.963 0.265 113.135l280.661 279.295h-1694.234c-44.184 0-80 35.816-80 80s35.816 80 80 80h1694.225l-280.644 279.296c-31.317 31.168-31.437 81.82-0.273 113.136 31.172 31.324 81.835 31.432 113.143 0.272l418.014-416c0.026-0.024 0.043-0.052 0.077-0.076 31.326-31.272 31.232-82.088-0.009-113.256z" />
<glyph unicode="&#xe902;" glyph-name="service-3" horiz-adv-x="958" d="M473.649-55.606c-2.028 0.029-4.021 0.528-5.822 1.457l-461.001 245.291c-2.067 1.142-3.791 2.816-4.992 4.85s-1.834 4.353-1.833 6.715v490.587c-0.010 2.364 0.619 4.687 1.821 6.722 1.201 2.036 2.931 3.709 5.004 4.842l461.273 245.293c1.799 0.988 3.818 1.507 5.87 1.507s4.071-0.518 5.868-1.507l461.182-245.293c2.074-1.133 3.805-2.805 5.006-4.842 1.201-2.035 1.83-4.357 1.82-6.722v-490.587c0-2.362-0.633-4.682-1.834-6.715-1.199-2.034-2.922-3.707-4.991-4.85l-461.182-245.291c-1.917-0.97-4.038-1.469-6.187-1.457zM25.48 210.629l448.169-238.555 448.534 238.555v474.834l-448.534 238.465-448.169-238.465v-474.834zM12.749 189.689c-2.343 0.016-4.637 0.681-6.627 1.918-1.991 1.235-3.602 2.998-4.657 5.094-1.562 3.051-1.875 6.593-0.872 9.874s3.24 6.040 6.241 7.698l709.79 377.5c1.491 0.782 3.122 1.26 4.8 1.405 1.676 0.143 3.365-0.049 4.966-0.566s3.085-1.35 4.361-2.447c1.276-1.098 2.321-2.439 3.072-3.946 1.531-3.069 1.817-6.609 0.801-9.884-1.019-3.275-3.261-6.030-6.261-7.689l-709.7-377.499c-1.83-0.944-3.856-1.444-5.915-1.457zM935.098 189.688c-2.031 0.007-4.029 0.507-5.825 1.456l-453.446 240.649c-3.035 1.627-5.308 4.38-6.33 7.668s-0.709 6.845 0.869 9.905c0.752 1.506 1.797 2.849 3.072 3.948 1.277 1.098 2.76 1.929 4.363 2.446 1.6 0.516 3.29 0.71 4.966 0.566 1.678-0.144 3.308-0.622 4.798-1.406l453.447-240.648c3.017-1.642 5.275-4.397 6.295-7.679s0.719-6.831-0.834-9.893c-1.062-2.108-2.687-3.879-4.696-5.119-2.009-1.238-4.32-1.893-6.68-1.893zM795.338 122.402c-2.062-0.004-4.092 0.496-5.916 1.457l-453.448 240.648c-3.017 1.644-5.272 4.398-6.292 7.679-1.020 3.282-0.721 6.832 0.834 9.896 0.751 1.506 1.796 2.849 3.072 3.946s2.76 1.929 4.36 2.446c1.602 0.519 3.291 0.71 4.968 0.566s3.308-0.621 4.798-1.405l453.539-240.649c3.016-1.641 5.274-4.397 6.294-7.677 1.020-3.282 0.721-6.831-0.834-9.895-1.062-2.108-2.687-3.879-4.696-5.119-2.007-1.237-4.319-1.893-6.678-1.893z" />
<glyph unicode="&#xe903;" glyph-name="service-4" horiz-adv-x="1273" d="M493.509-55.708c-1.915-0.030-3.818 0.337-5.585 1.079-1.767 0.74-3.361 1.841-4.68 3.227l-479.237 488.998c-2.636 2.763-4.106 6.434-4.106 10.252s1.47 7.487 4.106 10.252l479.237 488.998c1.314 1.403 2.904 2.521 4.67 3.286s3.672 1.159 5.595 1.159c1.925 0 3.829-0.394 5.597-1.159 1.764-0.765 3.354-1.883 4.67-3.286l479.236-488.998c2.66-2.753 4.146-6.428 4.146-10.252s-1.486-7.5-4.146-10.252l-479.236-488.998c-1.331-1.373-2.928-2.463-4.691-3.203-1.764-0.739-3.661-1.115-5.576-1.103zM34.601 447.95l458.908-468.29 458.91 468.29-458.91 468.29-458.908-468.29zM864.832 54.394c-1.913-0.005-3.807 0.373-5.57 1.113-1.764 0.738-3.361 1.825-4.696 3.193l-124.122 127.632c-2.613 2.774-4.067 6.441-4.067 10.252 0 3.808 1.455 7.475 4.067 10.252 1.331 1.376 2.926 2.471 4.689 3.218 1.764 0.748 3.661 1.133 5.577 1.133s3.812-0.385 5.578-1.133c1.763-0.747 3.358-1.842 4.688-3.218l114.471-116.87 351.009 358.189-351.009 358.19-361.173-369.056c-1.317-1.403-2.905-2.521-4.672-3.285-1.764-0.765-3.669-1.161-5.595-1.161-1.925 0-3.827 0.395-5.594 1.161-1.766 0.764-3.356 1.881-4.672 3.285-2.66 2.752-4.146 6.426-4.146 10.252 0 3.824 1.486 7.499 4.146 10.252l371.234 379.306c1.323 1.39 2.916 2.496 4.68 3.253 1.766 0.756 3.665 1.146 5.587 1.146 1.919 0 3.819-0.39 5.585-1.146 1.764-0.756 3.357-1.863 4.682-3.253l371.335-379.306c2.613-2.777 4.068-6.442 4.068-10.252s-1.456-7.477-4.068-10.252l-371.335-379.305c-1.438-1.301-3.127-2.292-4.964-2.908-1.838-0.618-3.784-0.849-5.713-0.681z" />
<glyph unicode="&#xe904;" glyph-name="service-1" horiz-adv-x="1260" d="M625.87-56.286c-2.135 0.043-4.238 0.517-6.185 1.393-1.947 0.874-3.697 2.133-5.145 3.7l-610.227 661.441c-2.329 2.556-3.792 5.782-4.178 9.216s0.322 6.904 2.025 9.912l157.825 280.693c1.361 2.447 3.346 4.49 5.754 5.922s5.154 2.2 7.956 2.228h82.935c4.297 0 8.416-1.705 11.454-4.741 3.040-3.035 4.746-7.152 4.746-11.445s-1.705-8.409-4.746-11.444c-3.038-3.036-7.157-4.741-11.454-4.741h-73.758l-147.288-262.131 590.287-639.596 585.074 638.69-164.054 262.584h-423.513c-4.296 0-8.416 1.705-11.454 4.741-3.040 3.035-4.746 7.152-4.746 11.445s1.705 8.409 4.746 11.445c3.038 3.036 7.159 4.741 11.454 4.741h432.236c2.664-0.014 5.28-0.708 7.599-2.015 2.321-1.307 4.268-3.185 5.658-5.455l175.386-280.693c1.915-3.017 2.786-6.576 2.48-10.134-0.307-3.559-1.776-6.917-4.18-9.56l-605.128-660.875c-2.946-3.156-7.017-5.025-11.332-5.205l-0.226-0.114zM891.435 234.367c-2.12 0.001-4.218 0.433-6.165 1.271-1.95 0.836-3.706 2.060-5.166 3.596l-629.713 651.367c-2.911 3.052-4.533 7.104-4.533 11.318s1.623 8.267 4.533 11.318c1.451 1.549 3.206 2.784 5.153 3.628 1.95 0.844 4.051 1.279 6.176 1.279s4.227-0.435 6.174-1.279c1.95-0.844 3.703-2.079 5.155-3.628l629.828-651.366c2.911-3.052 4.532-7.104 4.532-11.319s-1.621-8.267-4.532-11.318c-1.459-1.566-3.232-2.811-5.205-3.648-1.971-0.838-4.096-1.254-6.237-1.218z" />
<glyph unicode="&#xe905;" glyph-name="service-2" horiz-adv-x="1300" d="M1262.822-13.391l-344.034 4.961c-3.812 0.332-7.364 2.086-9.95 4.915-2.588 2.829-4.022 6.527-4.022 10.367s1.435 7.538 4.022 10.367c2.586 2.83 6.137 4.584 9.95 4.917l320.109-4.73-429.954 885.638-282.956-573.738 165.979-311.438c1.279-2.354 1.948-4.991 1.948-7.671s-0.67-5.318-1.948-7.671c-1.238-2.22-3.040-4.071-5.221-5.367-2.182-1.298-4.666-1.993-7.202-2.015l-325.054 4.384c-2.497 0.062-4.934 0.776-7.071 2.069-2.14 1.294-3.904 3.126-5.121 5.314-1.218 2.287-1.856 4.843-1.856 7.437s0.638 5.15 1.856 7.441l151.254 306.593-138.026 259.878-327.701-576.738c-0.94-1.678-2.208-3.151-3.728-4.326s-3.261-2.032-5.119-2.517-3.795-0.588-5.694-0.303c-1.899 0.284-3.721 0.948-5.357 1.956-3.293 2.217-5.632 5.598-6.549 9.467s-0.344 7.945 1.603 11.411l340.582 598.884c1.238 2.219 3.039 4.071 5.221 5.368 2.181 1.296 4.667 1.992 7.201 2.013 2.551-0.075 5.036-0.832 7.198-2.191 2.165-1.357 3.927-3.268 5.111-5.536l141.476-265.3 287.559 582.39c1.133 2.439 2.935 4.504 5.197 5.954 2.259 1.45 4.885 2.225 7.57 2.236 2.691-0.034 5.32-0.832 7.58-2.302s4.057-3.551 5.187-6.003l453.765-934.314c1.133-2.362 1.663-4.966 1.543-7.585-0.119-2.618-0.889-5.163-2.234-7.41-1.339-2.245-3.274-4.070-5.591-5.274-2.316-1.201-4.919-1.732-7.52-1.532zM378.297 29.98l276.056-4.037-144.471 271.066-131.585-267.029z" />
<glyph unicode="&#xe906;" glyph-name="star" d="M548.571 960h-73.142v-423.709l-299.608 299.607-51.72-51.72 299.607-299.608h-423.709v-73.142h423.709l-299.607-299.608 51.72-51.718 299.608 299.608v-423.711h73.142v423.711l299.608-299.608 51.718 51.718-299.608 299.608h423.711v73.142h-423.711l299.608 299.608-51.718 51.72-299.608-299.607v423.709z" />
<glyph unicode="&#xe907;" horiz-adv-x="1205" d="M730.516 960l-137.062-236.64-137.059 236.493h-456.394l593.453-1023.804 593.456 1023.952h-456.394z" />
<glyph unicode="&#xe908;" horiz-adv-x="1205" d="M730.525 960l-137.059-236.641-137.062 236.493h-218.991l356.054-614.587 356.054 614.587-218.994 0.147z" />
<glyph unicode="&#xe909;" glyph-name="wordPress" d="M512 960c-101.265 0-200.252-30.028-284.452-86.288-84.198-56.259-149.822-136.223-188.574-229.779-38.752-93.554-48.892-196.503-29.136-295.819 19.756-99.319 68.519-190.548 140.123-262.153s162.834-120.368 262.153-140.125c99.316-19.754 202.264-9.614 295.819 29.136 93.557 38.752 173.52 104.379 229.78 188.576s86.287 183.188 86.287 284.452c-0.157 135.743-54.152 265.88-150.136 361.864-95.982 95.984-226.12 149.978-361.864 150.136zM51.471 448c-0.046 64.563 13.542 128.407 39.876 187.353l219.59-601.395c-77.735 37.722-143.29 96.554-189.173 169.773-45.883 73.216-70.242 157.865-70.294 244.269zM512-12.529c-44.017-0.003-87.808 6.31-130.033 18.745l138.104 401.312 141.52-387.548c0.925-2.202 2.030-4.322 3.304-6.34-49.113-17.327-100.816-26.175-152.895-26.169zM575.446 663.636c27.684 1.463 52.661 4.388 52.661 4.388 24.817 2.926 21.673 39.389-2.924 37.926 0 0-74.55-5.851-122.717-5.851-45.24 0-121.254 5.851-121.254 5.851-24.817 1.463-27.741-36.463-2.927-37.926 0 0 23.462-2.926 48.276-4.388l71.734-196.511-100.777-302.107-167.631 498.456c27.74 1.463 52.663 4.388 52.663 4.388 24.814 2.926 21.673 39.389-2.926 37.926 0 0-74.551-5.851-122.663-5.851-8.615 0-18.8 0-29.636 0.542 36.594 55.702 84.85 102.791 141.431 138.011s120.137 57.73 186.273 65.973c66.135 8.244 133.271 2.025 196.768-18.228 63.494-20.252 121.835-54.054 170.981-99.068-2.003 0-3.9 0.379-5.957 0.379-45.243 0-77.315-39.389-77.315-81.703 0-37.926 21.67-70.055 45.24-107.98 17.498-30.666 37.924-70.057 37.924-126.943 0-39.391-15.17-85.118-35-148.832l-45.944-153.383-166.277 494.932zM915.965 668.675c57.498-105.285 71.641-228.852 39.424-344.407-32.22-115.555-108.255-213.977-211.932-274.327l140.866 406.347c26.278 65.669 35.003 118.167 35.003 164.87-0.060 15.953-1.202 31.883-3.415 47.679l0.054-0.163z" />
<glyph unicode="&#xe90a;" horiz-adv-x="934" d="M466.824 960l-466.824-169.984 71.202-630.272 395.622-223.744 395.622 223.744 71.201 630.272-466.824 169.984z" />
<glyph unicode="&#xe90b;" horiz-adv-x="934" d="M466.824 960v-1024l395.622 223.744 71.201 630.272-466.824 169.984z" />
<glyph unicode="&#xe90c;" horiz-adv-x="934" d="M466.827 846.846l-291.826-668.161h108.808l58.665 149.504h247.703l58.666-149.504h108.809l-290.825 668.161zM552.069 420.349h-170.484l85.242 209.408 85.242-209.408z" />
<glyph unicode="&#xe90d;" glyph-name="bs" horiz-adv-x="1295" d="M242.296 956.747c-41.713-9.126-79.782-44.604-93.726-87.401-4.126-12.649-4.759-21.173-6.234-86.347-1.717-76.529-4.457-105.171-14.185-148.751-19.727-88.275-56.952-137.818-113.152-150.498l-14.999-3.403v-64.181l5.933-1.265c20.239-4.247 26.684-6.325 38.008-12.378 40.147-21.384 68.126-67.855 84.209-139.866 9.728-43.58 12.469-72.222 14.185-148.751 1.476-65.175 2.108-73.698 6.234-86.347 13.14-39.138 42.514-69.724 79.909-84.224l0.926-0.316 13.432-5.030 399.119-0.572c438.664-0.632 410.022-1.446 438.392 12.378 26.315 13.163 46.968 34.371 59.095 60.357l0.328 0.782c10.722 22.92 12.74 37.888 12.8 94.328 0.060 77.252 6.295 131.795 20.781 182.152 16.745 58.187 42.526 96.346 77.764 115.11 11.324 6.054 17.769 8.132 38.008 12.378l5.933 1.265v64.181l-14.999 3.403c-67.704 15.3-107.219 82.914-123.422 211.215-1.235 9.848-2.982 49.935-3.885 89.118-1.867 79.962-2.952 86.377-19.034 112.971-15.61 25.767-39.090 45.42-67.065 55.842l-0.911 0.297-15.661 5.722-397.161 0.392c-328.704 0.331-399.48-0.12-410.624-2.56zM729.54 730.323c64.783-15.209 110.441-57.645 122.217-113.513 4.427-21.052 2.952-54.302-3.223-71.831-9.939-28.22-29.304-55.266-49.694-69.391-4.879-3.373-8.855-6.746-8.855-7.469s7.529-5.15 16.745-9.848c20.781-10.632 48.008-36.984 58.097-56.23 12.86-24.546 16.866-42.014 16.745-73.397-0.090-32.407-3.253-46.863-15.992-73.367-17.649-36.653-53.338-65.626-99.388-80.685-35.599-11.625-36.111-11.686-189.35-12.589l-142.999-0.873v574.615l139.746-0.813c124.085-0.693 141.583-1.235 155.949-4.608zM552.568 570.368v-66.138l59.874 0.843c54.603 0.753 61.199 1.265 74.27 5.602 19.004 6.264 33.822 16.745 41.773 29.515 5.722 9.246 6.536 12.649 7.138 30.027 0.632 17.98 0.181 20.6-5.391 31.473-7.108 13.854-19.576 24.124-35.84 29.515-9.397 3.102-22.046 3.855-76.529 4.518l-65.295 0.783v-66.138zM552.568 335.33v-74.662h63.759c49.393 0 67.494 0.753 80.384 3.373 45.237 9.216 65.205 31.563 65.205 72.975 0 15.631-0.813 19.607-6.536 31.021-6.746 13.523-13.854 20.329-29.545 28.311-19.908 10.15-32.105 11.625-104.749 12.68l-68.518 0.994v-74.692z" />
<glyph unicode="&#xe90e;" d="M192 64l-64 800h768l-64-800-320-96-320 96z" />
<glyph unicode="&#xe90f;" d="M832 800h-320v-784.002l256 80.002 64 704z" />
<glyph unicode="&#xe910;" d="M624.002 399.998h-320l-16.002 112.002 256 79.998h-256l-16 96.002h496l-15.998-112-208.002-79.998h192l-32-304.002-192-64-192 64-15.998 160h95.997l16.002-80.002 96-31.997 96 31.997 16.002 128z" />
<glyph unicode="&#xe911;" glyph-name="elementor" d="M906.975 886.86h-789.942c-24.294 0-43.886-19.592-43.886-43.886v-789.943c0-24.293 19.592-43.884 43.886-43.884h789.942c24.296 0 43.887 19.592 43.887 43.884v789.943c0 24.294-19.592 43.886-43.887 43.886zM395.041 253.064h-77.975v389.879h77.975v-389.879zM707.138 253.064h-234.123v77.978h234.123v-77.978zM707.138 409.016h-234.123v77.975h234.123v-77.975zM707.138 565.164h-234.123v77.975h234.123v-77.975z" />
<glyph unicode="&#xe912;" horiz-adv-x="904" d="M80.058 35.976l-80.058 898.988h881.022l-80.447-898.988-360.454-99.973-360.064 99.973z" />
<glyph unicode="&#xe913;" horiz-adv-x="904" d="M440.501 12.544l291.331 80.839 68.731 768.161h-360.062v-849z" />
<glyph unicode="&#xe914;" horiz-adv-x="904" d="M440.522 528.041h-146.057l-10.154 112.86h156.211v110.519h-276.492l2.734-29.68 26.946-303.827h246.813v110.128z" />
<glyph unicode="&#xe915;" horiz-adv-x="904" d="M440.498 241.784l-0.389-0.392-123.016 33.196-7.81 87.868h-110.519l15.23-173.002 226.114-62.877 0.389 0.392v114.814z" />
<glyph unicode="&#xe916;" horiz-adv-x="904" d="M440.118 528.038v-110.128h135.903l-12.887-143.324-123.016-33.193v-114.423l226.114 62.482 1.56 18.745 25.775 290.159 2.735 29.681h-256.184z" />
<glyph unicode="&#xe917;" horiz-adv-x="904" d="M440.118 751.419v-110.519h266.336l2.343 24.994 5.078 55.845 2.343 29.68h-276.101z" />
<glyph unicode="&#xe918;" d="M0 960h1024v-1024h-1024v1024z" />
<glyph unicode="&#xe919;" d="M269.239 104.273l78.36 47.423c15.119-26.802 28.871-49.483 61.859-49.483 31.621 0 51.561 12.369 51.561 60.479v327.192h96.229v-328.55c0-99.668-58.425-145.038-143.664-145.038-76.981 0-121.665 39.87-144.349 87.986zM609.515 114.586l78.351 45.363c20.631-33.684 47.438-58.428 94.862-58.428 39.876 0 65.301 19.938 65.301 47.432 0 32.994-26.121 44.68-70.114 63.922l-24.052 10.318c-69.427 29.548-115.48 66.668-115.48 145.029 0 72.177 54.989 127.169 140.911 127.169 61.178 0 105.168-21.311 136.785-76.99l-74.927-48.119c-16.501 29.557-34.364 41.24-61.862 41.24-28.184 0-46.056-17.872-46.056-41.24 0-28.868 17.872-40.559 59.112-58.431l24.055-10.309c81.803-35.060 127.852-70.801 127.852-151.215 0-86.615-68.048-134.042-159.467-134.042-89.356 0-147.098 42.616-175.276 98.298z" />
<glyph unicode="&#xe91a;" d="M512 0c247.422 0 448 200.578 448 448 0 247.424-200.578 448-448 448-247.424 0-448-200.576-448-448 0-247.422 200.576-448 448-448z" />
<glyph unicode="&#xe91b;" d="M462.041 640h53.76l-15.194-80.776h48.309c26.491-0.566 46.225-6.484 59.214-17.763 13.246-11.273 17.143-32.705 11.689-64.28l-26.1-140.827h-54.543l24.931 134.484c2.596 14.098 1.819 24.106-2.334 30.027-4.153 5.918-13.113 8.879-26.88 8.879l-43.246 0.422-31.946-173.812h-53.76l56.1 303.646z" />
<glyph unicode="&#xe91c;" d="M215.71 559.221l-55.71-303.224h54.151l14.804 80.354h46.749c15.84 0 31.165 1.97 45.971 5.918 14.803 3.954 28.696 13.255 41.686 27.916 10.65 11.559 18.956 24.528 24.931 38.903 6.234 14.381 10.261 29.039 12.077 43.987 4.674 32.705 0.13 58.501-13.637 77.39-13.767 18.887-35.973 28.476-66.617 28.756h-104.405zM237.915 384.139l23.297 126.449h7.869c2.859 0 5.843 0.145 8.96 0.422 20.78 0.283 38.046-1.834 51.813-6.343 14.023-4.509 18.7-21.567 14.023-51.17-5.707-35.247-16.881-55.826-33.5-61.744-16.621-5.641-37.4-8.318-62.333-8.035h-5.454c-1.559 0-3.117 0.145-4.675 0.422z" />
<glyph unicode="&#xe91d;" d="M781.969 559.221c30.645-0.28 52.85-9.87 66.617-28.756 13.77-18.89 18.312-44.686 13.634-77.39-1.813-14.947-5.843-29.606-12.077-43.987-5.972-14.375-14.282-27.344-24.931-38.903-12.987-14.661-26.88-23.962-41.686-27.916-14.803-3.948-30.127-5.918-45.969-5.918h-46.749l-14.806-80.354h-54.149l55.709 303.224h104.406zM723.064 510.587l-23.296-126.449c1.56-0.277 3.117-0.422 4.677-0.422h5.451c24.934-0.283 45.713 2.394 62.334 8.035 16.616 5.918 27.79 26.498 33.503 61.744 4.674 29.603 0 46.661-14.026 51.17-13.767 4.509-31.033 6.626-51.814 6.343-3.117-0.277-6.099-0.422-8.96-0.422h-7.87z" />
<glyph unicode="&#xe91e;" glyph-name="react" d="M1023.587 450.584c0 73.105-84.862 142.387-214.971 185.35 30.024 143.064 16.679 256.885-42.12 293.325-13.553 8.548-29.401 12.597-46.706 12.597v-50.162c9.592 0 17.306-2.025 23.769-5.849 28.359-17.545 40.662-84.353 31.069-170.281-2.295-21.145-6.048-43.414-10.635-66.132-40.867 10.796-85.489 19.119-132.403 24.518-28.148 41.614-57.338 79.405-86.739 112.471 67.976 68.157 131.777 105.498 175.146 105.498v50.162c-57.338 0-132.4-44.089-208.3-120.569-75.896 76.030-150.959 119.669-208.3 119.669v-50.162c43.162 0 107.174-37.115 175.149-104.823-29.193-33.066-58.383-70.632-86.115-112.246-47.122-5.399-91.743-13.721-132.61-24.743-4.796 22.494-8.34 44.314-10.842 65.233-9.8 85.928 2.293 152.735 30.442 170.506 6.255 4.049 14.387 5.849 23.977 5.849v50.162c-17.513 0-33.36-4.049-47.121-12.597-58.591-36.44-71.727-150.036-41.493-292.648-129.692-43.189-214.138-112.245-214.138-185.127 0-73.108 84.863-142.387 214.972-185.353-30.025-143.062-16.681-256.882 42.119-293.322 13.553-8.55 29.4-12.598 46.915-12.598 57.338 0 132.403 44.089 208.3 120.57 75.896-76.032 150.959-119.669 208.3-119.669 17.513 0 33.361 4.048 47.122 12.595 58.591 36.442 71.725 150.037 41.493 292.65 129.274 42.963 213.721 112.245 213.721 185.127zM752.11 600.618c-7.716-29.015-17.306-58.934-28.148-88.85-8.55 17.995-17.516 35.991-27.317 53.986-9.589 17.995-19.805 35.542-30.024 52.637 29.609-4.725 58.175-10.574 85.489-17.772zM656.613 361.056c-16.264-30.368-32.943-59.16-50.251-85.929-31.066-2.921-62.551-4.497-94.244-4.497-31.485 0-62.97 1.575-93.829 4.274-17.306 26.769-34.196 55.335-50.459 85.477-15.848 29.467-30.235 59.386-43.369 89.528 12.926 30.142 27.522 60.283 43.162 89.751 16.264 30.368 32.943 59.16 50.248 85.929 31.069 2.924 62.554 4.5 94.247 4.5 31.485 0 62.97-1.575 93.829-4.277 17.306-26.766 34.196-55.335 50.459-85.477 15.845-29.467 30.232-59.383 43.369-89.525-13.137-30.145-27.525-60.286-43.162-89.754zM723.962 390.301c11.258-30.145 20.85-60.286 28.774-89.528-27.317-7.198-56.091-13.273-85.908-17.995 10.219 17.321 20.435 35.090 30.027 53.311 9.589 17.995 18.555 36.216 27.106 54.212zM512.533 150.287c-19.39 21.594-38.782 45.661-57.964 71.981 18.766-0.901 37.948-1.575 57.341-1.575 19.598 0 38.99 0.449 57.964 1.575-18.766-26.32-38.156-50.387-57.341-71.981zM357.403 282.778c-29.606 4.722-58.173 10.571-85.487 17.769 7.715 29.018 17.306 58.934 28.149 88.853 8.548-17.995 17.514-35.991 27.314-53.986s19.808-35.542 30.024-52.637zM511.491 750.881c19.393-21.594 38.782-45.663 57.964-71.981-18.763 0.9-37.948 1.575-57.338 1.575-19.601 0-38.99-0.45-57.964-1.575 18.763 26.318 38.156 50.387 57.338 71.981zM357.195 618.391c-10.216-17.321-20.435-35.090-30.024-53.311-9.592-17.995-18.558-35.991-27.106-53.986-11.259 30.142-20.851 60.283-28.774 89.525 27.315 6.975 56.088 13.047 85.905 17.772zM168.496 336.763c-73.812 33.967-121.56 78.505-121.56 113.821s47.748 80.080 121.56 113.821c17.932 8.322 37.531 15.746 57.757 22.718 11.885-44.089 27.523-89.976 46.914-136.99-19.183-46.788-34.612-92.449-46.289-136.312-20.642 6.972-40.242 14.619-58.382 22.944zM280.673 15.321c-28.357 17.547-40.659 84.354-31.068 170.282 2.293 21.143 6.047 43.415 10.634 66.132 40.868-10.797 85.487-19.119 132.401-24.519 28.151-41.614 57.341-79.405 86.742-112.471-67.976-68.156-131.78-105.496-175.149-105.496-9.382 0.223-17.305 2.25-23.56 6.072zM775.255 186.726c9.797-85.926-2.295-152.736-30.443-170.505-6.255-4.048-14.387-5.849-23.98-5.849-43.162 0-107.174 37.117-175.146 104.824 29.19 33.066 58.383 70.629 86.115 112.245 47.122 5.397 91.741 13.722 132.611 24.742 4.795-22.718 8.547-44.538 10.842-65.458zM855.531 336.763c-17.932-8.325-37.533-15.746-57.757-22.721-11.887 44.089-27.525 89.979-46.914 136.99 19.182 46.788 34.611 92.452 46.288 136.315 20.643-6.972 40.24-14.622 58.591-22.944 73.812-33.967 121.561-78.505 121.561-113.821-0.211-35.316-47.959-80.080-121.769-113.821zM511.907 347.787c52.625 0 95.286 46.023 95.286 102.798s-42.662 102.798-95.286 102.798c-52.628 0-95.289-46.023-95.289-102.798s42.662-102.798 95.289-102.798z" />
<glyph unicode="&#xe91f;" d="M847.875 758.915c-0.702 5.123-5.189 7.955-8.894 8.265-3.701 0.311-82.001 6.113-82.001 6.113s-54.383 53.988-60.35 59.962c-5.972 5.974-17.634 4.157-22.161 2.824-0.672-0.196-11.881-3.658-30.434-9.395-18.17 52.27-50.224 100.308-106.629 100.308-1.554 0-3.159-0.065-4.762-0.155-16.041 21.212-35.912 30.427-53.073 30.427-131.382 0-194.151-164.24-213.833-247.706-51.050-15.819-87.321-27.064-91.953-28.52-28.496-8.937-29.396-9.837-33.136-36.689-2.823-20.326-77.385-596.956-77.385-596.956l581.006-108.86 314.814 68.105c0 0-110.514 747.154-111.209 752.277zM611.921 816.749c-14.592-4.517-31.181-9.649-49.161-15.214 0.018 3.462 0.033 6.874 0.033 10.598 0 32.489-4.509 58.645-11.743 79.383 29.061-3.65 48.414-36.713 60.871-74.767zM515 885.076c8.078-20.247 13.333-49.299 13.333-88.508 0-2.005-0.018-3.838-0.033-5.696-31.973-9.902-66.714-20.656-101.536-31.442 19.549 75.454 56.197 111.897 88.236 125.645zM475.964 922.025c5.671 0 11.384-1.923 16.851-5.688-42.107-19.813-87.239-69.718-106.3-169.371-27.856-8.626-55.085-17.055-80.258-24.854 22.326 76.011 75.339 199.913 169.707 199.913z" />
<glyph unicode="&#xe920;" d="M838.969 767.18c-3.698 0.311-82.001 6.113-82.001 6.113s-54.38 53.988-60.347 59.962c-2.235 2.226-5.246 3.364-8.397 3.855l-43.93-898.571 314.781 68.099c0 0-110.514 747.153-111.209 752.276-0.705 5.123-5.189 7.955-8.897 8.265z" />
<glyph unicode="&#xe921;" d="M537.407 593.236l-38.816-115.465c0 0-34.012 18.149-75.701 18.149-61.118 0-64.193-38.355-64.193-48.020 0-52.739 137.469-72.942 137.469-196.469 0-97.181-61.639-159.762-144.754-159.762-99.735 0-150.736 62.072-150.736 62.072l26.704 88.23c0 0 52.425-45.011 96.668-45.011 28.904 0 40.665 22.76 40.665 39.388 0 68.795-112.781 71.864-112.781 184.895 0 95.139 68.285 187.205 206.125 187.205 53.112 0 79.351-15.212 79.351-15.212z" />
<glyph unicode="&#xe922;" d="M923.988 960h-823.978c-55.235 0-100.011-44.776-100.011-100.011v-823.978c0-55.236 44.776-100.012 100.011-100.012h823.978c55.236 0 100.012 44.776 100.012 100.012v823.978c0 55.235-44.776 100.011-100.012 100.011z" />
<glyph unicode="&#xe923;" d="M633.859 145.17v-99.942c18.251-8.996 37.701-15.318 57.754-18.775 23.17-4.262 46.685-6.367 70.246-6.28 22.932-0.114 45.812 2.174 68.265 6.828 20.164 4.009 39.415 11.692 56.799 22.664 16.059 10.258 29.335 24.329 38.638 40.96 16.568 34.659 18.751 74.466 6.078 110.728-5.37 13.571-13.348 25.958-23.486 36.454-10.909 11.162-23.287 20.784-36.795 28.606-15.544 9.080-31.693 17.089-48.333 23.962-13.152 5.415-24.94 10.671-35.361 15.77-9.306 4.436-18.215 9.668-26.624 15.631-6.605 4.623-12.336 10.379-16.932 16.998-4.027 6.060-6.099 13.207-5.939 20.48-0.087 6.602 1.765 13.080 5.325 18.637 3.855 5.84 8.993 10.719 15.020 14.27 7.379 4.316 15.399 7.427 23.757 9.216 10.285 2.283 20.799 3.382 31.334 3.277 8.837-0.027 17.664-0.642 26.419-1.843 9.451-1.295 18.802-3.235 27.988-5.804 9.333-2.593 18.462-5.879 27.308-9.83 8.599-3.777 16.827-8.349 24.576-13.652v93.524c-16.131 6.072-32.858 10.418-49.902 12.972-20.57 2.994-41.339 4.409-62.124 4.232-22.751 0.123-45.435-2.446-67.584-7.647-20.007-4.569-39.035-12.686-56.184-23.962-15.911-10.55-29.067-24.76-38.364-41.436-9.803-18.522-14.646-39.264-14.065-60.211-0.72-27.696 8.424-54.748 25.805-76.324 17.203-21.070 43.351-38.912 78.438-53.519 13.655-5.644 26.488-11.174 38.502-16.589 10.731-4.768 21.052-10.406 30.859-16.863 7.885-5.132 14.818-11.598 20.48-19.116 4.984-6.804 7.623-15.047 7.508-23.483 0.042-6.316-1.581-12.535-4.71-18.022-3.497-5.903-8.397-10.851-14.267-14.405-7.34-4.469-15.366-7.698-23.757-9.556-10.933-2.44-22.115-3.584-33.316-3.412-22.001 0.039-43.827 3.897-64.512 11.4-21.606 7.755-41.65 19.317-59.187 34.132l0.343-0.066zM465.58 391.816h128.343v81.92h-357.923v-81.92h127.794v-365.839h101.719l0.066 365.839z" />
<glyph unicode="&#xe924;" glyph-name="check-mark" d="M156.333 485.873c-17.673-0.049-34.971-5.101-49.892-14.572s-26.857-22.972-34.425-38.942c-7.569-15.971-10.46-33.757-8.341-51.302s9.162-34.132 20.315-47.843l237.745-291.237c8.477-10.528 19.343-18.88 31.695-24.358 12.353-5.485 25.835-7.942 39.327-7.168 28.857 1.549 54.91 16.986 71.521 42.368l493.86 795.357c0.077 0.132 0.16 0.264 0.25 0.394 4.634 7.115 3.13 21.215-6.432 30.072-2.63 2.433-5.728 4.301-9.101 5.491-3.379 1.19-6.963 1.676-10.534 1.428s-7.059-1.224-10.24-2.869c-3.181-1.645-5.99-3.923-8.256-6.695-0.173-0.218-0.358-0.433-0.544-0.644l-498.064-562.733c-1.895-2.144-4.196-3.885-6.771-5.133-2.575-1.242-5.371-1.965-8.227-2.118s-5.713 0.262-8.407 1.222c-2.694 0.96-5.171 2.445-7.286 4.365l-165.297 150.424c-17.168 15.737-39.606 24.476-62.895 24.493z" />
<glyph unicode="&#xe925;" glyph-name="design-branding" d="M256 875.691l-251.72-78.822-0.446-328.757-0.42-328.757 229.035-196.109c2.573-2.206 17.802 2.494 141.207 43.638l138.345 46.106 138.345-46.106c123.405-41.144 138.634-45.844 141.207-43.638l229.035 196.109-0.42 328.757-0.446 328.73-252.56 78.979c-138.923 43.454-254.136 78.927-256 78.848-1.89-0.053-116.71-35.604-255.16-78.979zM725.071 833.995c116.631-36.444 212.047-66.823 212.047-67.479-0.079-2.337-159.376-137.794-161.241-137.085-19.719 7.247-260.726 86.515-263.089 86.515-1.864 0-62.123-19.587-133.908-43.533 50.171 13.054 6.405-1.756-37.461-16.344l-94.241-27.163c-1.339 0-160.085 135.877-160.61 137.505-0.341 0.998 420.286 133.461 424.671 133.75 0.971 0.053 97.201-29.722 213.832-66.166zM135.798 654.402c42.745-36.68 78.087-67.584 78.507-68.713 0.42-1.103 0.551-127.055 0.315-279.893l-0.42-277.872-157.88 135.299v278.922c0 153.416 0.394 278.922 0.893 278.922 0.473 0 35.866-30.011 78.585-66.665zM967.68 442.145v-278.922l-157.854-135.299-0.446 278.686-0.42 278.686 4.070 4.096c7.142 7.142 152.025 131.413 153.364 131.545 0.709 0.079 1.287-125.374 1.287-278.791zM486.4 366.185c0-225.726-0.446-285.040-2.127-286.379-2.416-1.917-212.598-72.126-215.906-72.126-1.707 0-2.048 57.79-1.707 286.142l0.446 286.169 108.36 36.181c59.602 19.876 108.938 35.84 109.647 35.446s1.287-128.84 1.287-285.433zM649.82 615.122l107.94-35.998v-285.722c0-227.433-0.446-285.722-2.127-285.722-3.308 0-213.491 70.21-215.906 72.126-3.125 2.468-3.125 571.287 0 571.287 1.182 0 50.727-16.2 110.093-35.971z" />
<glyph unicode="&#xe926;" glyph-name="quote" d="M585.142-64.004v270.108c0 154.651 37.385 282.29 112.153 382.917 74.769 100.629 183.67 165.772 326.705 195.432v-174.776c-69.349-16.949-123.53-48.196-162.539-93.743-39.011-45.547-62.849-101.158-71.519-166.832h169.042v-413.106h-373.842zM0-64.004v270.108c0 154.651 37.384 282.29 112.152 382.917 74.768 100.629 183.67 165.772 326.705 195.432v-174.776c-69.351-16.949-123.53-48.196-162.541-93.743-39.009-45.547-62.849-101.158-71.517-166.832h169.042v-413.106h-373.842z" />
<glyph unicode="&#xe927;" glyph-name="long-arrow-next" horiz-adv-x="2048" d="M0 455.855c10.254 32.465 35.286 38.775 65.746 38.775 597.14-0.299 1194.585-0.299 1791.726-0.299 8.444 0 16.589 0 29.858 0-8.444 9.318-13.572 15.027-18.999 20.442-118.225 118.134-236.446 235.969-354.667 354.105-3.618 3.908-7.842 7.515-11.157 11.423-19.004 21.343-19.605 47.495-1.51 66.132 17.792 18.337 44.634 18.036 66.351-0.601 4.523-3.908 8.742-8.116 12.966-12.325 147.477-146.994 295.253-293.987 442.731-440.981 33.173-33.067 33.173-55.309 0.602-87.774-149.888-149.402-299.776-298.799-449.664-448.196-24.128-24.047-49.762-27.055-70.571-8.717-17.493 15.33-20.813 40.282-7.241 59.217 5.73 8.115 12.971 15.33 19.904 22.246 117.619 117.534 235.541 235.068 353.459 352.303 5.129 5.111 9.954 10.219 18.701 19.537-12.971 0-21.111 0-29.257 0-597.743 0-1195.789 0-1793.534-0.299-28.952 0-52.174 6.912-64.841 35.17-0.603 6.613-0.603 13.227-0.603 19.84z" />
<glyph unicode="&#xe928;" glyph-name="long-arrow" horiz-adv-x="2048" d="M2048 440.145c-10.253-32.465-35.285-38.775-65.745-38.775-597.141 0.299-1194.586 0.299-1791.727 0.299-8.445 0-16.587 0-29.857 0 8.444-9.318 13.571-15.027 19-20.442 118.222-118.135 236.444-235.968 354.665-354.103 3.618-3.908 7.842-7.518 11.157-11.426 19.004-21.342 19.605-47.492 1.51-66.129-17.792-18.338-44.634-18.035-66.351 0.602-4.523 3.908-8.747 8.115-12.966 12.322-147.476 146.995-295.254 293.986-442.729 440.981-33.174 33.067-33.174 55.309-0.603 87.774 149.889 149.4 299.777 298.798 449.664 448.196 24.128 24.048 49.762 27.054 70.571 8.717 17.493-15.331 20.813-40.28 7.241-59.218-5.73-8.116-12.971-15.331-19.904-22.244-117.62-117.535-235.54-235.069-353.461-352.305-5.127-5.107-9.952-10.219-18.698-19.537 12.968 0 21.111 0 29.254 0 597.745 0 1195.791 0 1793.538 0.299 28.949 0 52.173-6.912 64.841-35.17 0.602-6.613 0.602-13.227 0.602-19.84z" />
</font>
</defs>
</svg>
